<<<<<<< HEAD
# Blender v2.81 (sub 16) OBJ File: 'yurt_props1.blend'
# www.blender.org
mtllib basket.mtl
o Cube.088_Cube.092
v 9.318753 -5.526412 -12.394787
v 9.274891 -3.957462 -12.350924
v 9.318753 -5.526412 -13.628416
v 9.274891 -3.957462 -13.672278
v 10.552382 -5.526412 -12.394787
v 10.596245 -3.957462 -12.350924
v 10.552382 -5.526412 -13.628416
v 10.596245 -3.957462 -13.672278
v 8.984833 -4.789871 -12.060867
v 8.984833 -4.789871 -13.962337
v 10.886303 -4.789871 -13.962337
v 10.886303 -4.789871 -12.060867
v 9.306705 -3.810382 -12.382739
v 9.306705 -3.810382 -13.640465
v 10.564431 -3.810382 -12.382738
v 10.564431 -3.810382 -13.640465
v 9.248214 -3.928046 -12.324247
v 9.248214 -3.928046 -13.698956
v 10.622923 -3.928046 -13.698956
v 10.622923 -3.928046 -12.324247
v 9.257502 -3.810382 -12.333534
v 9.257502 -3.810382 -13.689669
v 10.613635 -3.810381 -13.689669
v 10.613635 -3.810381 -12.333534
v 9.204074 -5.583194 -13.011601
v 9.078162 -4.358361 -12.154196
v 9.027137 -3.957462 -13.011601
v 9.080186 -5.239606 -13.866984
v 9.935568 -5.583194 -13.743095
v 9.935568 -3.957462 -13.920033
v 10.790951 -5.239606 -13.866983
v 10.667062 -5.583194 -13.011601
v 10.843999 -3.957462 -13.011601
v 10.790951 -5.239606 -12.156219
v 9.935568 -5.583194 -12.280107
v 9.935568 -3.957462 -12.103170
v 9.080186 -5.239606 -12.156219
v 9.078162 -4.358361 -13.869007
v 10.792974 -4.358361 -13.869007
v 10.792974 -4.358361 -12.154196
v 9.935568 -4.789871 -11.704342
v 11.242828 -4.789871 -13.011601
v 9.935568 -4.789871 -14.318862
v 8.628307 -4.789871 -13.011601
v 9.070882 -3.810381 -13.011601
v 9.935568 -3.810382 -13.876287
v 10.800255 -3.810382 -13.011601
v 9.935568 -3.810381 -12.146915
v 9.259552 -3.953784 -13.687618
v 9.259552 -3.953784 -12.335585
v 10.611585 -3.953784 -12.335585
v 10.611585 -3.953784 -13.687618
v 8.990456 -3.928046 -13.011601
v 9.935568 -3.928046 -13.956714
v 10.880680 -3.928046 -13.011601
v 9.935568 -3.928046 -12.066489
v 9.003226 -3.810382 -13.011601
v 9.935568 -3.810382 -13.943943
v 10.867910 -3.810381 -13.011601
v 9.935568 -3.810382 -12.079260
v 10.625763 -3.869214 -12.321406
v 10.625763 -3.869214 -13.701797
v 9.245373 -3.869214 -13.701797
v 9.245373 -3.869214 -12.321406
v 10.585550 -3.788320 -12.361619
v 10.585550 -3.788320 -13.661584
v 9.285586 -3.788320 -13.661584
v 9.285585 -3.788320 -12.361619
v 10.571372 -3.872890 -12.375798
v 9.299765 -3.872890 -12.375798
v 10.571372 -3.872890 -13.647406
v 9.299765 -3.872890 -13.647406
v 8.756636 -4.358361 -13.011601
v 9.935568 -4.358361 -14.190535
v 11.114501 -4.358361 -13.011601
v 9.935568 -4.358361 -11.832669
v 9.935568 -5.702356 -13.011601
v 9.935568 -5.245204 -11.838999
v 11.108171 -5.245204 -13.011601
v 9.935568 -5.245204 -14.184204
v 8.762965 -5.245204 -13.011601
v 9.935568 -3.953784 -12.082079
v 10.829293 -3.788320 -13.011601
v 9.006045 -3.953784 -13.011601
v 10.865091 -3.953784 -13.011601
v 10.884586 -3.869214 -13.011601
v 8.986549 -3.869214 -13.011601
v 9.935568 -3.869214 -12.062583
v 9.935568 -3.869214 -13.960620
v 9.041842 -3.788320 -13.011601
v 9.935568 -3.953785 -13.941124
v 9.935568 -3.788320 -12.117876
v 9.935568 -3.788320 -13.905327
v 9.935568 -3.872890 -12.137372
v 10.809798 -3.872890 -13.011601
v 9.935568 -3.872890 -13.885832
v 9.061338 -3.872890 -13.011601
vt 0.104167 0.083333
vt 0.104167 0.104167
vt 0.013021 0.013021
vt 0.013021 0.010417
vt 0.104167 0.125000
vt 0.013021 0.015625
vt 0.000000 0.000000
vt 0.000000 0.000000
vt 0.000000 0.000000
vt 0.104167 0.166667
vt 0.026042 0.026042
vt 0.004340 0.004340
vt 0.010851 0.016927
vt 0.104167 0.041667
vt 0.010851 0.004774
vt 0.000000 0.000000
vt 0.000000 0.000000
vt 0.000000 0.000000
vt 0.104167 0.145833
vt 0.013021 0.018229
vt 0.000000 0.000000
vt 0.104167 0.062500
vt 0.013021 0.007813
vt 0.000000 0.000000
vt 0.325521 0.455729
vt 0.325521 0.520833
vt 0.325521 0.390625
vt 0.625000 0.750000
vt 0.625000 0.875000
vt 0.625000 1.000000
vt 0.325521 0.325521
vt 0.325521 0.260417
vt 0.625000 0.500000
vt 0.625000 0.625000
vt 0.325521 0.195313
vt 0.325521 0.130208
vt 0.625000 0.250000
vt 0.625000 0.375000
vt 0.000000 0.000000
vt 0.000000 0.000000
vt 0.312500 0.312500
vt 0.312500 0.125000
vt 0.000000 0.000000
vt 0.312500 0.500000
vt 0.625000 0.625000
vt 0.500000 0.000000
vt 0.562500 0.000000
vt 0.562500 0.125000
vt 0.500000 0.125000
vt 0.625000 0.000000
vt 0.625000 0.125000
vt 0.562500 0.250000
vt 0.500000 0.250000
vt 0.562500 0.375000
vt 0.500000 0.375000
vt 0.562500 0.500000
vt 0.500000 0.500000
vt 0.562500 0.625000
vt 0.500000 0.625000
vt 0.562500 0.750000
vt 0.500000 0.750000
vt 0.562500 0.875000
vt 0.500000 0.875000
vt 0.562500 1.000000
vt 0.500000 1.000000
vt 0.125000 0.500000
vt 0.244792 0.494792
vt 0.246528 0.625000
vt 0.125000 0.625000
vt 0.333333 0.458333
vt 0.350694 0.625000
vt 0.333333 0.791667
vt 0.244792 0.755208
vt 0.125000 0.750000
vt 0.433594 0.753472
vt 0.436632 0.875868
vt 0.369792 0.880208
vt 0.437500 1.000000
vt 0.375000 1.000000
vt 0.433594 0.496528
vt 0.434028 0.625000
vt 0.375000 0.250000
vt 0.437500 0.250000
vt 0.436632 0.374132
vt 0.369792 0.369792
vt 0.375000 0.000000
vt 0.437500 0.000000
vt 0.437500 0.125000
vt 0.375000 0.125000
vt 0.625000 0.875000
vt 0.625000 1.000000
vt 0.625000 0.750000
vt 0.625000 0.750000
vt 0.625000 0.875000
vt 0.625000 1.000000
vt 0.625000 0.125000
vt 0.625000 0.250000
vt 0.625000 0.000000
vt 0.625000 0.000000
vt 0.625000 0.125000
vt 0.625000 0.250000
vt 0.625000 0.625000
vt 0.625000 0.500000
vt 0.625000 0.500000
vt 0.625000 0.625000
vt 0.625000 0.625000
vt 0.625000 0.750000
vt 0.625000 0.500000
vt 0.625000 0.500000
vt 0.625000 0.625000
vt 0.625000 0.750000
vt 0.625000 0.125000
vt 0.625000 0.250000
vt 0.625000 0.000000
vt 0.625000 0.000000
vt 0.625000 0.125000
vt 0.625000 0.250000
vt 0.625000 0.875000
vt 0.625000 1.000000
vt 0.625000 0.875000
vt 0.625000 1.000000
vt 0.625000 0.375000
vt 0.625000 0.375000
vt 0.625000 0.375000
vt 0.625000 0.375000
vn -0.5899 0.7765 0.2212
vn -0.5899 0.7765 -0.2212
vn 0.4877 0.8536 0.1829
vn 0.4877 0.8536 -0.1829
vn 0.5900 0.7765 -0.2212
vn 0.5900 0.7765 0.2212
vn -0.4877 0.8536 -0.1829
vn -0.4877 0.8536 0.1829
vn -0.2212 0.7765 -0.5900
vn 0.2212 0.7765 -0.5899
vn -0.1829 0.8536 0.4877
vn 0.1829 0.8536 0.4877
vn 0.2212 0.7765 0.5900
vn -0.2212 0.7765 0.5900
vn 0.1829 0.8536 -0.4877
vn -0.1829 0.8536 -0.4877
vn 0.3476 -0.1415 -0.9269
vn -0.3476 -0.1415 -0.9269
vn -0.3284 -0.3541 -0.8757
vn 0.3284 -0.3541 -0.8757
vn -0.9269 -0.1415 -0.3476
vn -0.9269 -0.1415 0.3476
vn -0.8757 -0.3541 0.3284
vn -0.8757 -0.3541 -0.3284
vn -0.3476 -0.1415 0.9269
vn 0.3476 -0.1415 0.9269
vn 0.3284 -0.3541 0.8757
vn -0.3284 -0.3541 0.8757
vn 0.9269 -0.1415 0.3476
vn 0.9269 -0.1415 -0.3476
vn 0.8757 -0.3541 -0.3284
vn 0.8757 -0.3541 0.3284
vn -0.7071 0.0016 0.7071
vn -0.6413 0.4213 0.6413
vn -0.9100 0.4145 0.0000
vn -1.0000 0.0017 -0.0000
vn -0.5809 0.5701 0.5809
vn -0.8289 0.5593 0.0000
vn -0.5809 0.5701 -0.5809
vn -0.6413 0.4213 -0.6413
vn -0.7071 0.0016 -0.7071
vn 0.0000 0.4145 -0.9100
vn 0.0000 0.0017 -1.0000
vn 0.0000 0.5593 -0.8289
vn 0.5809 0.5701 -0.5809
vn 0.6413 0.4213 -0.6413
vn 0.7071 0.0016 -0.7071
vn 0.9100 0.4145 0.0000
vn 1.0000 0.0017 0.0000
vn 0.8289 0.5593 0.0000
vn 0.5809 0.5701 0.5809
vn 0.6413 0.4213 0.6413
vn 0.7071 0.0016 0.7071
vn 0.0000 0.4145 0.9100
vn 0.0000 0.0017 1.0000
vn 0.0000 0.5593 0.8289
vn -0.3468 -0.8714 -0.3468
vn -0.0000 -0.9066 -0.4220
vn 0.0000 -1.0000 0.0000
vn -0.4220 -0.9066 0.0000
vn 0.3468 -0.8714 -0.3468
vn 0.4220 -0.9066 0.0000
vn 0.3468 -0.8714 0.3468
vn 0.0000 -0.9066 0.4220
vn -0.3468 -0.8714 0.3468
vn 0.5995 -0.5302 0.5995
vn 0.0000 -0.5244 0.8515
vn -0.5995 -0.5302 0.5995
vn 0.5995 -0.5302 -0.5995
vn 0.8515 -0.5244 0.0000
vn -0.5995 -0.5302 -0.5995
vn 0.0000 -0.5244 -0.8515
vn -0.8515 -0.5244 0.0000
vn -0.1182 -0.9859 0.1182
vn -0.0000 -0.9851 0.1717
vn 0.0000 -0.7832 0.6218
vn -0.4415 -0.7812 0.4415
vn 0.1182 -0.9859 0.1182
vn 0.4415 -0.7812 0.4415
vn 0.6766 -0.2904 0.6766
vn 0.0000 -0.2865 0.9581
vn -0.6766 -0.2904 0.6766
vn -0.1182 -0.9859 -0.1182
vn -0.1718 -0.9851 0.0000
vn -0.6218 -0.7832 -0.0000
vn -0.4415 -0.7812 -0.4415
vn -0.9581 -0.2865 -0.0000
vn -0.6766 -0.2904 -0.6766
vn 0.1717 -0.9851 0.0000
vn 0.6218 -0.7832 0.0000
vn 0.1182 -0.9859 -0.1182
vn 0.4415 -0.7812 -0.4415
vn 0.6766 -0.2904 -0.6766
vn 0.9581 -0.2865 -0.0000
vn 0.9949 0.1010 0.0000
vn 0.7034 0.1029 0.7034
vn 0.7034 0.1029 -0.7034
vn 0.6788 0.2799 -0.6788
vn 0.9621 0.2727 0.0000
vn 0.6788 0.2799 0.6788
vn -0.9949 0.1010 0.0000
vn -0.7034 0.1029 -0.7034
vn -0.7034 0.1029 0.7034
vn -0.6788 0.2799 0.6788
vn -0.9621 0.2727 0.0000
vn -0.6788 0.2799 -0.6788
vn 0.0000 0.1010 0.9949
vn 0.0000 0.2727 0.9621
vn 0.0000 -0.2865 -0.9581
vn 0.0000 0.1010 -0.9949
vn 0.0000 0.2727 -0.9621
vn -0.0000 -0.9851 -0.1717
vn 0.0000 -0.7832 -0.6218
usemtl Material.001
s off
f 16/1/1 47/2/1 83/3/1 66/4/1
f 47/2/2 15/5/2 65/6/2 83/3/2
f 83/3/3 65/6/3 24/7/3 59/8/3
f 66/4/4 83/3/4 59/8/4 23/9/4
f 13/10/5 45/11/5 90/12/5 68/13/5
f 45/11/6 14/14/6 67/15/6 90/12/6
f 90/12/7 67/15/7 22/16/7 57/17/7
f 68/13/8 90/12/8 57/17/8 21/18/8
f 15/5/9 48/19/9 92/20/9 65/6/9
f 48/19/10 13/10/10 68/13/10 92/20/10
f 92/20/11 68/13/11 21/18/11 60/21/11
f 65/6/12 92/20/12 60/21/12 24/7/12
f 14/14/13 46/22/13 93/23/13 67/15/13
f 46/22/14 16/1/14 66/4/14 93/23/14
f 93/23/15 66/4/15 23/9/15 58/24/15
f 67/15/16 93/23/16 58/24/16 22/16/16
f 13/10/17 48/19/17 94/25/17 70/26/17
f 48/19/18 15/5/18 69/27/18 94/25/18
f 94/25/19 69/27/19 6/28/19 36/29/19
f 70/26/20 94/25/20 36/29/20 2/30/20
f 15/5/21 47/2/21 95/31/21 69/27/21
f 47/2/22 16/1/22 71/32/22 95/31/22
f 95/31/23 71/32/23 8/33/23 33/34/23
f 69/27/24 95/31/24 33/34/24 6/28/24
f 16/1/25 46/22/25 96/35/25 71/32/25
f 46/22/26 14/14/26 72/36/26 96/35/26
f 96/35/27 72/36/27 4/37/27 30/38/27
f 71/32/28 96/35/28 30/38/28 8/33/28
f 14/39/29 45/40/29 97/41/29 72/42/29
f 45/40/30 13/43/30 70/44/30 97/41/30
f 97/41/31 70/44/31 2/30/31 27/45/31
f 72/42/32 97/41/32 27/45/32 4/37/32
s 1
f 9/46/33 26/47/34 73/48/35 44/49/36
f 26/47/34 2/50/37 27/51/38 73/48/35
f 73/48/35 27/51/38 4/37/39 38/52/40
f 44/49/36 73/48/35 38/52/40 10/53/41
f 10/53/41 38/52/40 74/54/42 43/55/43
f 38/52/40 4/37/39 30/38/44 74/54/42
f 74/54/42 30/38/44 8/33/45 39/56/46
f 43/55/43 74/54/42 39/56/46 11/57/47
f 11/57/47 39/56/46 75/58/48 42/59/49
f 39/56/46 8/33/45 33/34/50 75/58/48
f 75/58/48 33/34/50 6/28/51 40/60/52
f 42/59/49 75/58/48 40/60/52 12/61/53
f 12/61/53 40/60/52 76/62/54 41/63/55
f 40/60/52 6/28/51 36/29/56 76/62/54
f 76/62/54 36/29/56 2/30/37 26/64/34
f 41/63/55 76/62/54 26/64/34 9/65/33
f 3/66/57 29/67/58 77/68/59 25/69/60
f 29/67/58 7/70/61 32/71/62 77/68/59
f 77/68/59 32/71/62 5/72/63 35/73/64
f 25/69/60 77/68/59 35/73/64 1/74/65
f 5/72/63 34/75/66 78/76/67 35/77/64
f 34/75/66 12/61/53 41/63/55 78/76/67
f 78/76/67 41/63/55 9/65/33 37/78/68
f 35/77/64 78/76/67 37/78/68 1/79/65
f 7/70/61 31/80/69 79/81/70 32/71/62
f 31/80/69 11/57/47 42/59/49 79/81/70
f 79/81/70 42/59/49 12/61/53 34/75/66
f 32/71/62 79/81/70 34/75/66 5/72/63
f 3/82/57 28/83/71 80/84/72 29/85/58
f 28/83/71 10/53/41 43/55/43 80/84/72
f 80/84/72 43/55/43 11/57/47 31/80/69
f 29/85/58 80/84/72 31/80/69 7/70/61
f 1/86/65 37/87/68 81/88/73 25/89/60
f 37/87/68 9/46/33 44/49/36 81/88/73
f 81/88/73 44/49/36 10/53/41 28/83/71
f 25/89/60 81/88/73 28/83/71 3/82/57
f 2/30/74 36/29/75 82/90/76 50/91/77
f 36/29/75 6/28/78 51/92/79 82/90/76
f 82/90/76 51/92/79 20/93/80 56/94/81
f 50/91/77 82/90/76 56/94/81 17/95/82
f 4/37/83 27/51/84 84/96/85 49/97/86
f 27/51/84 2/50/74 50/98/77 84/96/85
f 84/96/85 50/98/77 17/99/82 53/100/87
f 49/97/86 84/96/85 53/100/87 18/101/88
f 6/28/78 33/34/89 85/102/90 51/92/79
f 33/34/89 8/33/91 52/103/92 85/102/90
f 85/102/90 52/103/92 19/104/93 55/105/94
f 51/92/79 85/102/90 55/105/94 20/93/80
f 20/93/80 55/105/94 86/106/95 61/107/96
f 55/105/94 19/104/93 62/108/97 86/106/95
f 86/106/95 62/108/97 23/109/98 59/110/99
f 61/107/96 86/106/95 59/110/99 24/111/100
f 18/101/88 53/100/87 87/112/101 63/113/102
f 53/100/87 17/99/82 64/114/103 87/112/101
f 87/112/101 64/114/103 21/115/104 57/116/105
f 63/113/102 87/112/101 57/116/105 22/117/106
f 17/95/82 56/94/81 88/118/107 64/119/103
f 56/94/81 20/93/80 61/107/96 88/118/107
f 88/118/107 61/107/96 24/111/100 60/120/108
f 64/119/103 88/118/107 60/120/108 21/121/104
f 19/104/93 54/122/109 89/123/110 62/108/97
f 54/122/109 18/101/88 63/113/102 89/123/110
f 89/123/110 63/113/102 22/117/106 58/124/111
f 62/108/97 89/123/110 58/124/111 23/109/98
f 8/33/91 30/38/112 91/125/113 52/103/92
f 30/38/112 4/37/83 49/97/86 91/125/113
f 91/125/113 49/97/86 18/101/88 54/122/109
f 52/103/92 91/125/113 54/122/109 19/104/93
=======
version https://git-lfs.github.com/spec/v1
oid sha256:f6189fc5550b597615937ab2d77a74fbb3d6bc0c22a9118ec5fc0b1c1478b5e5
size 12590
>>>>>>> 148c523ef14d65c08338c7d5f075ff823d56c4a4
