# Blender v2.81 (sub 16) OBJ File: 'yurt_props1.blend'
# www.blender.org
mtllib ottoman chair.mtl
o Cube_Cube.001
v -1.170104 -0.732592 1.170104
v -0.591578 0.588813 0.591578
v -1.170104 -0.732592 -1.170104
v -0.591578 0.588813 -0.591578
v 1.170104 -0.732592 1.170104
v 0.591578 0.588813 0.591578
v 1.170104 -0.732592 -1.170104
v 0.591578 0.588813 -0.591578
v -1.560139 -0.390423 1.560139
v -1.560139 0.169091 1.560139
v -1.560139 0.169091 -1.560139
v -1.560139 -0.390423 -1.560139
v 1.560139 0.169091 -1.560139
v 1.560139 -0.390423 -1.560139
v 1.560139 0.169091 1.560139
v 1.560139 -0.390423 1.560139
v -1.367297 0.668228 1.367297
v -1.367297 0.668228 -1.367297
v 1.367297 0.668228 -1.367297
v 1.367297 0.668228 1.367297
v -1.426516 -0.755969 0.000000
v -1.536034 0.474501 1.536034
v -1.880033 0.668228 -0.000000
v -1.493327 -0.609647 -1.493327
v 0.000000 -0.755969 -1.426516
v -0.000000 0.668228 -1.880033
v 1.493327 -0.609647 -1.493327
v 1.426516 -0.755969 0.000000
v 1.880033 0.668228 -0.000000
v 1.493327 -0.609647 1.493327
v -0.000000 -0.755969 1.426516
v -0.000000 0.668228 1.880033
v -1.493327 -0.609647 1.493327
v -1.560139 -0.127265 1.560139
v -1.536034 0.474501 -1.536034
v -1.560139 -0.127265 -1.560139
v 1.536034 0.474501 -1.536034
v 1.560139 -0.127265 -1.560139
v 1.536034 0.474501 1.536034
v 1.560139 -0.127265 1.560139
v -0.000000 -0.390423 2.145191
v -0.000000 0.169091 2.145191
v 2.145191 -0.390423 0.000000
v 2.145191 0.169091 0.000000
v 0.000000 -0.390423 -2.145191
v 0.000000 0.169091 -2.145191
v -2.145191 -0.390423 -0.000000
v -2.145191 0.169091 -0.000000
v -0.661843 0.570519 0.000000
v -0.000000 0.570519 -0.661843
v 0.661843 0.570519 -0.000000
v -0.000000 0.570518 0.661843
v -0.978412 0.661483 0.978412
v -0.978412 0.661483 -0.978412
v 0.978412 0.661484 -0.978412
v 0.978412 0.661484 0.978412
v -2.112046 0.474501 0.000000
v -0.000000 0.474501 -2.112046
v 2.112046 0.474501 -0.000000
v 0.000000 0.474501 2.112046
v 0.000000 -0.805029 -0.000000
v -0.000000 0.532125 -0.000000
v 0.000000 -0.611952 2.054905
v -0.000000 -0.127265 2.145191
v 2.054905 -0.611952 -0.000000
v 2.145191 -0.127265 0.000000
v -0.000000 -0.611952 -2.054905
v 0.000000 -0.127265 -2.145191
v -2.054905 -0.611952 0.000000
v -2.145191 -0.127265 -0.000000
v -1.333421 0.659680 0.000000
v 0.000000 0.659680 -1.333421
v 1.333421 0.659680 0.000000
v 0.000000 0.659680 1.333421
vt 0.541667 0.000000
vt 0.583333 0.000000
vt 0.583333 0.125000
vt 0.541667 0.125000
vt 0.625000 0.000000
vt 0.625000 0.125000
vt 0.625000 0.250000
vt 0.583333 0.250000
vt 0.541667 0.250000
vt 0.584201 0.374132
vt 0.541667 0.375000
vt 0.630208 0.369792
vt 0.666667 0.458333
vt 0.586539 0.496528
vt 0.541667 0.500000
vt 0.584003 0.625000
vt 0.541667 0.625000
vt 0.622969 0.625000
vt 0.666667 0.791667
vt 0.586539 0.753472
vt 0.541667 0.750000
vt 0.584201 0.875868
vt 0.541667 0.875000
vt 0.630208 0.880208
vt 0.625000 1.000000
vt 0.583333 1.000000
vt 0.541667 1.000000
vt 0.125000 0.500000
vt 0.244792 0.494792
vt 0.245949 0.625000
vt 0.125000 0.625000
vt 0.333333 0.458333
vt 0.344907 0.625000
vt 0.333333 0.791667
vt 0.244792 0.755208
vt 0.125000 0.750000
vt 0.689678 0.564678
vt 0.750000 0.551683
vt 0.750000 0.625000
vt 0.676683 0.625000
vt 0.810322 0.564678
vt 0.823317 0.625000
vt 0.810322 0.685322
vt 0.750000 0.698317
vt 0.689678 0.685322
vt 0.412616 0.753472
vt 0.415799 0.875868
vt 0.369792 0.880208
vt 0.458333 0.750000
vt 0.458333 0.875000
vt 0.458333 1.000000
vt 0.416667 1.000000
vt 0.375000 1.000000
vt 0.500000 0.750000
vt 0.500000 0.875000
vt 0.500000 1.000000
vt 0.412616 0.496528
vt 0.412616 0.625000
vt 0.458333 0.500000
vt 0.458333 0.625000
vt 0.500000 0.500000
vt 0.500000 0.625000
vt 0.375000 0.250000
vt 0.416667 0.250000
vt 0.415799 0.374132
vt 0.369792 0.369792
vt 0.458333 0.250000
vt 0.458333 0.375000
vt 0.500000 0.250000
vt 0.500000 0.375000
vt 0.375000 0.000000
vt 0.416667 0.000000
vt 0.416667 0.125000
vt 0.375000 0.125000
vt 0.458333 0.000000
vt 0.458333 0.125000
vt 0.500000 0.000000
vt 0.500000 0.125000
vt 0.857170 0.625000
vt 0.827917 0.702917
vt 0.827917 0.547083
vt 0.833333 0.541667
vt 0.864583 0.625000
vt 0.833333 0.708333
vt 0.750000 0.516094
vt 0.671816 0.540139
vt 0.750000 0.500000
vt 0.641764 0.625000
vt 0.671816 0.709862
vt 0.750000 0.733906
vt 0.750000 0.750000
vn -0.9315 0.1011 0.3493
vn -0.6232 0.7463 0.2337
vn -0.6232 0.7463 -0.2337
vn -0.9315 0.1011 -0.3493
vn -0.3493 0.1011 -0.9315
vn -0.2337 0.7463 -0.6232
vn 0.2337 0.7463 -0.6232
vn 0.3493 0.1011 -0.9315
vn 0.9315 0.1011 -0.3493
vn 0.6232 0.7463 -0.2337
vn 0.6232 0.7463 0.2337
vn 0.9315 0.1011 0.3493
vn 0.3493 0.1011 0.9315
vn 0.2337 0.7463 0.6232
vn -0.2337 0.7463 0.6232
vn -0.3493 0.1011 0.9315
vn -0.0309 -0.9990 -0.0309
vn 0.0309 -0.9990 -0.0309
vn 0.0309 -0.9990 0.0309
vn -0.0309 -0.9990 0.0309
vn -0.0478 0.9977 0.0478
vn 0.0478 0.9977 0.0478
vn 0.0478 0.9977 -0.0478
vn -0.0478 0.9977 -0.0478
vn 0.0838 -0.9665 0.2427
vn 0.3281 -0.3609 0.8730
vn -0.3281 -0.3609 0.8730
vn -0.0838 -0.9665 0.2427
vn 0.3511 0.0000 0.9363
vn -0.3511 0.0000 0.9363
vn 0.2427 -0.9665 -0.0838
vn 0.8730 -0.3609 -0.3281
vn 0.8730 -0.3609 0.3281
vn 0.2427 -0.9665 0.0838
vn 0.9363 0.0000 -0.3511
vn 0.9363 -0.0000 0.3511
vn -0.0838 -0.9665 -0.2427
vn -0.3281 -0.3609 -0.8730
vn 0.3281 -0.3609 -0.8730
vn 0.0838 -0.9665 -0.2427
vn -0.3511 0.0000 -0.9363
vn 0.3511 -0.0000 -0.9363
vn -0.2427 -0.9665 0.0838
vn -0.8730 -0.3609 0.3281
vn -0.8730 -0.3609 -0.3281
vn -0.2427 -0.9665 -0.0838
vn -0.9363 0.0000 0.3511
vn -0.9363 -0.0000 -0.3511
vn 0.1335 0.9898 -0.0488
vn 0.1335 0.9898 0.0488
vn 0.0139 0.9999 0.0059
vn 0.0139 0.9999 -0.0059
vn 0.0488 0.9898 0.1335
vn -0.0488 0.9898 0.1335
vn -0.0059 0.9999 0.0139
vn 0.0059 0.9999 0.0139
vn -0.1335 0.9898 0.0488
vn -0.1335 0.9898 -0.0488
vn -0.0139 0.9999 -0.0059
vn -0.0139 0.9999 0.0059
vn -0.0488 0.9898 -0.1335
vn 0.0488 0.9898 -0.1335
vn 0.0059 0.9999 -0.0139
vn -0.0059 0.9999 -0.0139
usemtl None
s off
f 10/1/1 22/2/1 57/3/1 48/4/1
f 22/2/2 17/5/2 23/6/2 57/3/2
f 57/3/3 23/6/3 18/7/3 35/8/3
f 48/4/4 57/3/4 35/8/4 11/9/4
f 11/9/5 35/8/5 58/10/5 46/11/5
f 35/8/6 18/7/6 26/12/6 58/10/6
f 58/10/7 26/12/7 19/13/7 37/14/7
f 46/11/8 58/10/8 37/14/8 13/15/8
f 13/15/9 37/14/9 59/16/9 44/17/9
f 37/14/10 19/13/10 29/18/10 59/16/10
f 59/16/11 29/18/11 20/19/11 39/20/11
f 44/17/12 59/16/12 39/20/12 15/21/12
f 15/21/13 39/20/13 60/22/13 42/23/13
f 39/20/14 20/19/14 32/24/14 60/22/14
f 60/22/15 32/24/15 17/25/15 22/26/15
f 42/23/16 60/22/16 22/26/16 10/27/16
f 3/28/17 25/29/17 61/30/17 21/31/17
f 25/29/18 7/32/18 28/33/18 61/30/18
f 61/30/19 28/33/19 5/34/19 31/35/19
f 21/31/20 61/30/20 31/35/20 1/36/20
f 8/37/21 50/38/21 62/39/21 51/40/21
f 50/38/22 4/41/22 49/42/22 62/39/22
f 62/39/23 49/42/23 2/43/23 52/44/23
f 51/40/24 62/39/24 52/44/24 6/45/24
f 5/34/25 30/46/25 63/47/25 31/48/25
f 30/46/26 16/49/26 41/50/26 63/47/26
f 63/47/27 41/50/27 9/51/27 33/52/27
f 31/48/28 63/47/28 33/52/28 1/53/28
f 16/49/29 40/54/29 64/55/29 41/50/29
f 40/54/29 15/21/29 42/23/29 64/55/29
f 64/55/30 42/23/30 10/27/30 34/56/30
f 41/50/30 64/55/30 34/56/30 9/51/30
f 7/32/31 27/57/31 65/58/31 28/33/31
f 27/57/32 14/59/32 43/60/32 65/58/32
f 65/58/33 43/60/33 16/49/33 30/46/33
f 28/33/34 65/58/34 30/46/34 5/34/34
f 14/59/35 38/61/35 66/62/35 43/60/35
f 38/61/35 13/15/35 44/17/35 66/62/35
f 66/62/36 44/17/36 15/21/36 40/54/36
f 43/60/36 66/62/36 40/54/36 16/49/36
f 3/63/37 24/64/37 67/65/37 25/66/37
f 24/64/38 12/67/38 45/68/38 67/65/38
f 67/65/39 45/68/39 14/59/39 27/57/39
f 25/66/40 67/65/40 27/57/40 7/32/40
f 12/67/41 36/69/41 68/70/41 45/68/41
f 36/69/41 11/9/41 46/11/41 68/70/41
f 68/70/42 46/11/42 13/15/42 38/61/42
f 45/68/42 68/70/42 38/61/42 14/59/42
f 1/71/43 33/72/43 69/73/43 21/74/43
f 33/72/44 9/75/44 47/76/44 69/73/44
f 69/73/45 47/76/45 12/67/45 24/64/45
f 21/74/46 69/73/46 24/64/46 3/63/46
f 9/75/47 34/77/47 70/78/47 47/76/47
f 34/77/47 10/1/47 48/4/47 70/78/47
f 70/78/48 48/4/48 11/9/48 36/69/48
f 47/76/48 70/78/48 36/69/48 12/67/48
f 2/43/49 49/42/49 71/79/49 53/80/49
f 49/42/50 4/41/50 54/81/50 71/79/50
f 71/79/51 54/81/51 18/82/51 23/83/51
f 53/80/52 71/79/52 23/83/52 17/84/52
f 4/41/53 50/38/53 72/85/53 54/81/53
f 50/38/54 8/37/54 55/86/54 72/85/54
f 72/85/55 55/86/55 19/13/55 26/87/55
f 54/81/56 72/85/56 26/87/56 18/82/56
f 8/37/57 51/40/57 73/88/57 55/86/57
f 51/40/58 6/45/58 56/89/58 73/88/58
f 73/88/59 56/89/59 20/19/59 29/18/59
f 55/86/60 73/88/60 29/18/60 19/13/60
f 6/45/61 52/44/61 74/90/61 56/89/61
f 52/44/62 2/43/62 53/80/62 74/90/62
f 74/90/63 53/80/63 17/84/63 32/91/63
f 56/89/64 74/90/64 32/91/64 20/19/64
